<svg width="48" height="49" viewBox="0 0 48 49" fill="none" xmlns="http://www.w3.org/2000/svg">
<circle cx="24" cy="24.0547" r="1" fill="#75BC37"/>
<path d="M24.0003 17.0469C23.4444 17.0469 22.9932 17.4971 22.9932 18.054V23.0469H18.0003C17.4444 23.0469 16.9932 23.4971 16.9932 24.054C16.9932 24.611 17.4444 25.0612 18.0003 25.0612H22.9932V30.054C22.9932 30.611 23.4444 31.0612 24.0003 31.0612C24.5562 31.0612 25.0074 30.611 25.0074 30.054V25.0612H30.0003C30.5562 25.0612 31.0074 24.611 31.0074 24.054C31.0074 23.4971 30.5562 23.0469 30.0003 23.0469H25.0074V18.054C25.0074 17.4971 24.5562 17.0469 24.0003 17.0469Z" fill="#75BC37"/>
<circle cx="24" cy="24.0547" r="18" stroke="#75BC37" stroke-width="2"/>
</svg>
