<svg width="16" height="16" viewBox="0 0 16 16" fill="none" xmlns="http://www.w3.org/2000/svg">
<path fill-rule="evenodd" clip-rule="evenodd" d="M8.17949 1.37462C8.0501 1.31316 7.89871 1.32172 7.77786 1.39822C7.65661 1.47432 7.58336 1.60737 7.58336 1.75059C7.58336 3.99507 6.47373 4.84184 5.29901 5.73823C4.16863 6.60088 3 7.4928 3 9.56312C3 12.3777 5.24285 14.6673 8.00002 14.6673C10.7572 14.6673 13 12.3777 13 9.56312C13.0001 5.89978 9.65207 2.07732 8.17949 1.37462ZM10.4869 12.3244C10.4956 12.2386 10.5001 12.1514 10.5001 12.0632C10.5001 10.3017 8.97866 8.43276 8.18357 8.04296C8.05376 7.9799 7.90038 7.9868 7.77952 8.06372C7.65746 8.13982 7.58338 8.27369 7.58338 8.41733C7.58338 9.35798 7.16234 9.68792 6.63019 10.1049C6.10047 10.5199 5.50003 10.9903 5.50003 12.0632C5.50003 12.1515 5.50451 12.2386 5.51318 12.3244C5.28176 12.1045 5.07763 11.8545 4.90701 11.5805C4.54436 10.9979 4.33333 10.3069 4.33333 9.56319C4.33333 8.9062 4.49414 8.4504 4.73874 8.08152C5.11333 7.51661 5.6538 7.09737 6.27805 6.61886L6.30109 6.6012C6.89696 6.1445 7.56904 5.62938 8.05041 4.90434C8.32578 4.48958 8.55234 4.0137 8.70461 3.45487C9.09501 3.84854 9.51727 4.34604 9.91873 4.91578C10.3588 5.54031 10.7667 6.24159 11.0777 6.97399C11.4422 7.8323 11.6667 8.71718 11.6667 9.56319C11.6667 10.2261 11.4991 10.8469 11.2061 11.3863C11.0156 11.7371 10.772 12.0535 10.4869 12.3244ZM8.44559 10.15C8.14792 10.6105 7.76506 10.9102 7.47128 11.1402L7.45247 11.155C7.20328 11.3503 7.06072 11.4666 6.96535 11.5966C6.88899 11.7007 6.83333 11.8287 6.83333 12.0637C6.83333 12.7931 7.38509 13.3346 8.00005 13.3346C8.61495 13.3346 9.16672 12.7931 9.16672 12.0637C9.16672 11.6368 9.01524 11.1585 8.77451 10.6954C8.67432 10.5027 8.56197 10.3189 8.44559 10.15Z" fill="#75BC37"/>
</svg>
