<svg width="28" height="28" viewBox="0 0 28 28" fill="none" xmlns="http://www.w3.org/2000/svg">
<path d="M4.83619 9.81815L10.7567 3.76537C11.0676 3.45398 11.4268 3.20427 11.8173 3.01481C11.8174 3.01487 11.8173 3.01475 11.8173 3.01481C12.4611 2.70252 13.1902 2.55415 13.9287 2.56286C15.114 2.5757 16.3273 2.99222 17.1732 3.83805L23.2663 9.93119C23.33 9.99492 23.3862 10.0574 23.4354 10.1185L23.8163 10.4993C24.2538 10.9369 24.4996 11.5304 24.4996 12.1492V15.4655L24.501 15.4685L24.5372 22.1407C24.5372 23.4532 23.4802 24.5102 22.1677 24.5102H18.4483C17.2852 24.5102 16.3343 23.5594 16.3343 22.3962V18.538C16.3343 17.3258 15.352 16.3435 14.1398 16.3435H13.8622C12.65 16.3435 11.6677 17.3258 11.6677 18.538V22.3962C11.6677 23.5594 10.7169 24.5102 9.55369 24.5102H5.83435C4.52185 24.5102 3.46484 23.4602 3.46484 22.1407L3.50016 15.6261V12.1492C3.50016 11.5304 3.73256 10.9184 4.17008 10.4808L4.83619 9.81815Z" fill="#75BC37"/>
</svg>
