<svg width="28" height="28" viewBox="0 0 28 28" fill="none" xmlns="http://www.w3.org/2000/svg">
<path fill-rule="evenodd" clip-rule="evenodd" d="M2.51468 3.5011C2.51922 2.94445 2.96528 2.4936 3.51501 2.49808C5.05747 2.51057 6.33865 3.4315 7.20638 4.7568L7.25523 4.83142H24.5164C25.1474 4.83152 25.6093 5.39951 25.4849 6.02025L24.3543 11.8168L24.3532 11.8239C24.2312 12.6344 23.8051 13.432 23.2006 14.0263C22.5962 14.6206 21.8247 15.0014 21.0164 15.0014H9.66989L9.76943 15.7008L9.77123 15.7098C9.87891 16.2478 10.2189 16.7353 10.6573 17.0866C11.0959 17.438 11.6473 17.6647 12.194 17.6647H22.183C22.7359 17.6647 23.1847 18.1135 23.1847 18.6664C23.1847 19.2193 22.7359 19.6681 22.183 19.6681H12.194C10.1545 19.6681 8.20329 18.106 7.79823 16.0831L6.41343 8.28438C6.39388 8.16649 6.19428 7.15188 5.74126 6.26824C5.17706 5.16741 4.471 4.50918 3.5177 4.50142C2.96095 4.49689 2.5102 4.05084 2.51468 3.5011ZM23.2948 6.83475H8.14434L8.20704 7.04658C8.30962 7.39318 8.3839 7.74667 8.42131 7.97441L9.28352 12.9981H21.0164C21.1669 12.9981 21.3202 12.9409 21.46 12.8572C21.6017 12.7724 21.7406 12.6538 21.8656 12.5147C22.1135 12.2389 22.3215 11.8654 22.3818 11.4761L23.2948 6.83475Z" fill="#BDBDBD"/>
<path d="M9.51469 23.9164C9.51469 23.0415 10.2244 22.3314 11.0997 22.3314C11.9746 22.3314 12.6847 23.0415 12.6847 23.9164C12.6847 24.7913 11.9746 25.5014 11.0997 25.5014C10.2244 25.5014 9.51469 24.7913 9.51469 23.9164Z" fill="#BDBDBD"/>
<path d="M18.848 23.9164C18.848 23.0415 19.5582 22.3314 20.433 22.3314C21.3079 22.3314 22.018 23.0415 22.018 23.9164C22.018 24.7913 21.3079 25.5014 20.433 25.5014C19.5582 25.5014 18.848 24.7913 18.848 23.9164Z" fill="#BDBDBD"/>
</svg>
