<svg width="20" height="24" viewBox="0 0 20 24" fill="none" xmlns="http://www.w3.org/2000/svg">
<path fill-rule="evenodd" clip-rule="evenodd" d="M9.90334 0.248047C6.46399 0.248047 3.66599 3.04604 3.66599 6.48539C3.66599 9.92474 6.46399 12.7227 9.90334 12.7227C13.3427 12.7227 16.1407 9.92474 16.1407 6.48539C16.1407 3.04604 13.3427 0.248047 9.90334 0.248047ZM5.65891 6.48539C5.65891 4.14509 7.56303 2.24096 9.90334 2.24096C12.2436 2.24096 14.1478 4.14509 14.1478 6.48539C14.1478 8.82569 12.2436 10.7298 9.90334 10.7298C7.56303 10.7298 5.65891 8.82569 5.65891 6.48539Z" fill="#BDBDBD"/>
<path d="M9.31091 14.3757C4.6905 14.3757 0.931641 18.1345 0.931641 22.755C0.931641 23.3053 1.37776 23.7514 1.9281 23.7514C2.47844 23.7514 2.92456 23.3053 2.92456 22.755C2.92456 19.2336 5.78954 16.3686 9.31091 16.3686H10.6781C14.1995 16.3686 17.0645 19.2336 17.0645 22.755C17.0645 23.3053 17.5106 23.7514 18.0609 23.7514C18.6113 23.7514 19.0574 23.3053 19.0574 22.755C19.0574 18.1345 15.2985 14.3757 10.6781 14.3757H9.31091Z" fill="#BDBDBD"/>
</svg>
