<svg width="28" height="28" viewBox="0 0 28 28" fill="none" xmlns="http://www.w3.org/2000/svg">
<path fill-rule="evenodd" clip-rule="evenodd" d="M13.9992 2.10352C11.6174 2.10352 9.39653 3.27581 8.05376 5.20319C7.9606 5.1985 7.86781 5.19616 7.77558 5.19616C4.64856 5.19616 2.10254 7.72446 2.10254 10.8356C2.10254 13.6058 4.12127 15.9123 6.77061 16.3851V23.665C6.77061 24.8973 7.77886 25.8968 9.01553 25.8968H18.9829C20.2196 25.8968 21.2278 24.8972 21.2278 23.665V16.3851C23.8772 15.9123 25.8959 13.6057 25.8959 10.8356C25.8959 7.72447 23.3498 5.19616 20.2229 5.19616C20.1307 5.19616 20.0379 5.1985 19.9447 5.20319C18.602 3.27558 16.3811 2.10352 13.9992 2.10352ZM9.44642 6.75472C10.3706 5.11973 12.1152 4.10344 13.9991 4.10344C15.883 4.10344 17.6276 5.11978 18.552 6.75477C18.7605 7.12384 19.1796 7.32099 19.5974 7.25018C19.8089 7.21422 20.0194 7.19608 20.2227 7.19608C22.2436 7.19608 23.8857 8.83035 23.8857 10.8356C23.8859 12.8408 22.2438 14.475 20.2229 14.475C19.8872 14.475 19.5596 14.4305 19.2453 14.3441C19.2152 14.3358 19.1953 14.3441 19.1554 14.3181C19.174 14.2993 19.1925 14.2804 19.2109 14.2614C20.0223 13.4235 20.6367 12.3854 20.964 11.2121C21.1128 10.6786 20.7977 10.128 20.2636 9.9809C19.73 9.83408 19.1759 10.1444 19.0271 10.6772C18.4038 12.912 16.3364 14.475 13.9992 14.475C11.662 14.475 9.59469 12.9121 8.97129 10.6772C8.82265 10.1442 8.2685 9.83413 7.73479 9.98091C7.20065 10.1279 6.88564 10.6786 7.03441 11.2122C7.36908 12.412 8.00406 13.4705 8.84302 14.3181C8.50149 14.4216 8.14336 14.475 7.77558 14.475C5.75462 14.475 4.11255 12.8408 4.11255 10.8356C4.11255 8.83035 5.75471 7.19608 7.77558 7.19608C7.97905 7.19608 8.18968 7.21424 8.40119 7.25021C8.81865 7.32092 9.23779 7.12374 9.44642 6.75472ZM8.78063 16.3862C9.45594 16.2667 10.0997 16.0265 10.69 15.6726C11.6911 16.1872 12.8202 16.4749 13.9992 16.4749C15.1782 16.4749 16.3073 16.1872 17.3083 15.6727C17.8988 16.0264 18.5426 16.2667 19.2179 16.3862V23.6649C19.2179 23.7869 19.1093 23.8969 18.9829 23.8969H9.01561C8.88927 23.8969 8.78063 23.7869 8.78063 23.6649V16.3862Z" fill="#BDBDBD"/>
</svg>
