<svg width="21" height="17" viewBox="0 0 21 17" fill="none" xmlns="http://www.w3.org/2000/svg">
<path d="M14.0142 0.90625C12.9096 0.90625 12.0142 1.80125 12.0142 2.90624C12.0142 4.01124 12.9096 4.90623 14.0142 4.90623C14.7239 4.90623 15.3916 4.52522 15.7389 3.90422L19.0142 3.90624C19.5665 3.90624 20.0142 3.45824 20.0142 2.90624C20.0142 2.35424 19.5665 1.90625 19.0142 1.90625L15.7389 1.90423C15.3573 1.29323 14.7239 0.90625 14.0142 0.90625ZM1.01416 1.90625C0.46186 1.90625 0.0141602 2.35424 0.0141602 2.90624C0.0141602 3.45824 0.46186 3.90624 1.01416 3.90624H13.0142C13.5665 3.90624 14.0142 3.45824 14.0142 2.90624C14.0142 2.35424 13.5665 1.90625 13.0142 1.90625H1.01416ZM6.01416 6.90623C5.24356 6.90623 4.56646 7.3712 4.28926 7.9202C4.05826 7.8972 1.01416 7.90622 1.01416 7.90622C0.46186 7.90622 0.0141602 8.35422 0.0141602 8.90622C0.0141602 9.45822 0.46186 9.90622 1.01416 9.90622C1.01416 9.90622 4.11836 9.89322 4.28926 9.89822C4.57106 10.4752 5.24356 10.9062 6.01416 10.9062C7.11876 10.9062 8.01416 10.0112 8.01416 8.90622C8.01416 7.80122 7.11876 6.90623 6.01416 6.90623ZM6.01416 7.90622C5.46186 7.90622 5.01416 8.35422 5.01416 8.90622C5.01416 9.45822 5.46186 9.90622 6.01416 9.90622H19.0142C19.5665 9.90622 20.0142 9.45822 20.0142 8.90622C20.0142 8.35422 19.5665 7.90622 19.0142 7.90622H6.01416ZM14.0142 12.9062C12.9096 12.9062 12.0142 13.8012 12.0142 14.9062C12.0142 16.0112 12.9096 16.9062 14.0142 16.9062C14.7239 16.9062 15.4286 16.5072 15.7499 15.8952L19.0142 15.9062C19.5665 15.9062 20.0142 15.4582 20.0142 14.9062C20.0142 14.3542 19.5665 13.9062 19.0142 13.9062L15.7542 13.9192C15.3765 13.2942 14.7239 12.9062 14.0142 12.9062ZM1.01416 13.9062C0.46186 13.9062 0.0141602 14.3542 0.0141602 14.9062C0.0141602 15.4582 0.46186 15.9062 1.01416 15.9062H13.0142C13.5665 15.9062 14.0142 15.4582 14.0142 14.9062C14.0142 14.3542 13.5665 13.9062 13.0142 13.9062H1.01416Z" fill="#333333"/>
</svg>
